<svg height="512" viewBox="0 0 44 58" width="512" xmlns="http://www.w3.org/2000/svg"><g id="069---Waistcoat" fill="none" transform="translate(0 -1)"><path id="Shape" d="m32 1h-20l10 29z" fill="#35495e"/><path id="Shape" d="m13.76 2.14 8.24 22.86v25l-6 9-14.8-6.48c-.72784639-.3176571-1.19879636-1.0358558-1.2-1.83v-22.69s7-3 6-13c-.3087151-3.2579586-.81632871-6.49399535-1.52-9.69-.21129581-.99063367.3513766-1.98282701 1.31-2.31l5.53-1.9c.9592964-.32007342 2.0065716.12630617 2.44 1.04z" fill="#3f5c6c"/><path id="Shape" d="m30.24 2.14-8.24 22.86v25l6 9 14.8-6.48c.7278464-.3176571 1.1987964-1.0358558 1.2-1.83v-22.69s-7-3-6-13c.3087151-3.2579586.8163287-6.49399535 1.52-9.69.2112958-.99063367-.3513766-1.98282701-1.31-2.31l-5.53-1.9c-.9592964-.32007342-2.0065716.12630617-2.44 1.04z" fill="#547580"/><g fill="#95a5a5"><path id="Shape" d="m12.22 41.83-7-1.56c-.30066373-.0679051-.61584207.0066399-.8542298.2020396-.23838773.1953998-.37334303.4898169-.3657702.7979604v2.23c0 .3147573.14819416.6111456.4.8l3.24 2.43c.22867472.1716016.51986315.237119.8.18l3.76-.75c.4731232-.0964736.8097357-.5172392.8-1v-2.36c-.0025616-.4654607-.3259347-.8676042-.78-.97z"/><path id="Shape" d="m31.78 41.83 7-1.56c.3006637-.0679051.6158421.0066399.8542298.2020396.2383877.1953998.373343.4898169.3657702.7979604v2.23c0 .3147573-.1481942.6111456-.4.8l-3.24 2.43c-.2286747.1716016-.5198632.237119-.8.18l-3.76-.75c-.4731232-.0964736-.8097357-.5172392-.8-1v-2.36c.0025616-.4654607.3259347-.8676042.78-.97z"/><circle id="Oval" cx="18" cy="34" r="1"/><circle id="Oval" cx="18" cy="40" r="1"/></g></g></svg>