<svg height="512" viewBox="0 0 74 74" width="512" xmlns="http://www.w3.org/2000/svg"><g id="color_line" data-name="color line"><path d="m53.1 24.936v46.064h-13.055l-2.925-42.055a2.128 2.128 0 0 0 -4.241 0l-2.924 42.055h-13.055v-46.064l3.356-1.507a2.2 2.2 0 0 0 1.278-1.829l.995-13.345 24.941.01.996 13.335a2.2 2.2 0 0 0 1.276 1.829z" fill="#05afd6"/><path d="m29.963 71 .162-4.07h-13.226v4.07z" fill="#05afd6"/><path d="m29.963 71.5h-13.063a.5.5 0 0 1 -.5-.5v-4.07a.5.5 0 0 1 .5-.5h13.225a.5.5 0 0 1 .5.52l-.162 4.07a.5.5 0 0 1 -.5.48zm-12.563-1h12.082l.122-3.07h-12.204z" fill="#323c6b"/><path d="m53.101 71v-4.07h-13.226l.162 4.07z" fill="#05afd6"/><path d="m16.899 3.006h36.203v5.254h-36.203z" fill="#9297ab"/><path d="m49.875 3.01h3.225v5.26h-3.225z" fill="#84879c"/><path d="m22.529 8.254-.995 13.346a2.2 2.2 0 0 1 -1.276 1.829l-3.358 1.507v-16.682z" fill="#05afd6"/><path d="m16.9 25.436a.5.5 0 0 1 -.5-.5v-16.682a.5.5 0 0 1 .5-.5h5.627a.5.5 0 0 1 .5.537l-1 13.345a2.7 2.7 0 0 1 -1.566 2.246l-3.36 1.509a.5.5 0 0 1 -.201.045zm.5-16.681v15.408l2.652-1.191a1.7 1.7 0 0 0 .982-1.41l.955-12.808z" fill="#323c6b"/><path d="m53.1 8.265v16.671l-3.356-1.507a2.2 2.2 0 0 1 -1.278-1.829l-.995-13.335z" fill="#05afd6"/><path d="m53.1 25.436a.5.5 0 0 1 -.205-.044l-3.356-1.507a2.7 2.7 0 0 1 -1.569-2.247l-1-13.335a.5.5 0 0 1 .5-.537h5.63a.5.5 0 0 1 .5.5v16.67a.5.5 0 0 1 -.5.5zm-5.091-16.671.955 12.8a1.7 1.7 0 0 0 .986 1.411l2.65 1.187v-15.398z" fill="#323c6b"/><path d="m47.471 8.76a.5.5 0 0 1 -.5-.5v-.01a.5.5 0 1 1 .5.505z" fill="#323c6b"/><path d="m33.165 8.254v11.924a1.009 1.009 0 0 0 1.009 1.009 2.66 2.66 0 0 0 2.66-2.66v-10.262z" fill="#27a2db"/><path d="m34.174 21.687a1.51 1.51 0 0 1 -1.509-1.509v-11.924a.5.5 0 0 1 .5-.5l3.669.011a.5.5 0 0 1 .5.5v10.262a3.164 3.164 0 0 1 -3.16 3.16zm-.508-12.932v11.423a.509.509 0 0 0 .509.509 2.163 2.163 0 0 0 2.16-2.16v-9.763z" fill="#323c6b"/><path d="m31.043 3.004h7.914v5.25h-7.914z" fill="#fcd462"/><path d="m38.957 8.754h-7.914a.5.5 0 0 1 -.5-.5v-5.254a.5.5 0 0 1 .5-.5h7.913a.5.5 0 0 1 .5.5v5.25a.5.5 0 0 1 -.499.504zm-7.413-1h6.913v-4.254h-6.914z" fill="#323c6b"/><path d="m52.725 24.94v46.06h-3v-46.06l-3.36-1.51a2.207 2.207 0 0 1 -1.27-1.83l-1-13.34h3l1 13.34a2.207 2.207 0 0 0 1.27 1.83z" fill="#27a2db"/><g fill="#323c6b"><path d="m13.9 48.458a.5.5 0 0 1 -.5-.5v-10.541a.5.5 0 0 1 1 0v10.541a.5.5 0 0 1 -.5.5z"/><path d="m13.9 35.583a.5.5 0 0 1 -.5-.5v-.708a.5.5 0 0 1 1 0v.708a.5.5 0 0 1 -.5.5z"/><path d="m53.1 71.5h-13.056a.5.5 0 0 1 -.5-.465l-2.923-42.055a1.627 1.627 0 0 0 -3.243.006l-2.923 42.049a.5.5 0 0 1 -.5.465h-13.055a.5.5 0 0 1 -.5-.5v-46.064a.5.5 0 0 1 .295-.456l3.357-1.507a1.7 1.7 0 0 0 .982-1.41l1-13.345a.5.5 0 0 1 .5-.463l24.941.01a.5.5 0 0 1 .5.463l1 13.335a1.7 1.7 0 0 0 .986 1.411l3.339 1.505a.5.5 0 0 1 .295.456v46.065a.5.5 0 0 1 -.495.5zm-12.587-1h12.087v-45.241l-3.062-1.375a2.7 2.7 0 0 1 -1.569-2.247l-.96-12.873-24.014-.01-.96 12.882a2.7 2.7 0 0 1 -1.566 2.246l-3.069 1.377v45.241h12.089l2.892-41.589a2.628 2.628 0 0 1 5.238-.006z"/><path d="m53.1 71.5h-13.063a.5.5 0 0 1 -.5-.48l-.162-4.07a.5.5 0 0 1 .5-.52h13.225a.5.5 0 0 1 .5.5v4.07a.5.5 0 0 1 -.5.5zm-12.584-1h12.084v-3.07h-12.2z"/><path d="m53.1 8.765-36.2-.011a.5.5 0 0 1 -.5-.5v-5.254a.5.5 0 0 1 .5-.5l36.2.011a.5.5 0 0 1 .5.5v5.254a.5.5 0 0 1 -.5.5zm-35.7-1.011 35.2.011v-4.254l-35.2-.011z"/></g><path d="m42.25 60.2a.65.65 0 0 1 -.648-.6l-.638-8.841a.65.65 0 0 1 1.3-.094l.638 8.841a.65.65 0 0 1 -.6.7z" fill="#fff"/><path d="m42.468 63.237a.65.65 0 0 1 -.648-.6l-.051-.707a.65.65 0 0 1 1.3-.093l.051.707a.65.65 0 0 1 -.6.695z" fill="#fff"/></g></svg>