<?xml version="1.0" encoding="iso-8859-1"?>
<!-- Generator: Adobe Illustrator 19.0.0, SVG Export Plug-In . SVG Version: 6.00 Build 0)  -->
<svg version="1.1" id="Capa_1" xmlns="http://www.w3.org/2000/svg" xmlns:xlink="http://www.w3.org/1999/xlink" x="0px" y="0px"
	 viewBox="0 0 512 512" style="enable-background:new 0 0 512 512;" xml:space="preserve">
<path style="fill:#2196F3;" d="M383.681,114.752l-21.013-84.075V10.667C362.668,4.776,357.892,0,352.001,0h-192
	c-5.891,0-10.667,4.776-10.667,10.667v20.011l-21.013,84.053c-0.265,1.045-0.373,2.123-0.32,3.2l21.333,384
	c0.317,5.657,5.001,10.078,10.667,10.069h74.667c5.72,0.005,10.426-4.503,10.667-10.219l10.667-244.715v-0.619l10.667,245.333
	c0.24,5.715,4.946,10.224,10.667,10.219h74.667c5.665,0.009,10.349-4.413,10.667-10.069l21.333-384
	C384.052,116.861,383.945,115.79,383.681,114.752z"/>
<g>
	<path style="fill:#455A64;" d="M202.668,42.667c-5.891,0-10.667-4.776-10.667-10.667V10.667C192.001,4.776,196.777,0,202.668,0
		c5.891,0,10.667,4.776,10.667,10.667V32C213.335,37.891,208.559,42.667,202.668,42.667z"/>
	<path style="fill:#455A64;" d="M309.335,42.667c-5.891,0-10.667-4.776-10.667-10.667V10.667C298.668,4.776,303.444,0,309.335,0
		c5.891,0,10.667,4.776,10.667,10.667V32C320.001,37.891,315.226,42.667,309.335,42.667z"/>
</g>
<path d="M352.001,512h-74.667c-5.72,0.005-10.426-4.503-10.667-10.219l-10.667-245.333v0.619l-10.667,244.736
	c-0.251,5.707-4.954,10.203-10.667,10.197h-74.667c-5.665,0.009-10.349-4.413-10.667-10.069l-21.333-384
	c-0.058-1.068,0.043-2.14,0.299-3.179l21.035-84.075V10.667C149.335,4.776,154.11,0,160.001,0h192
	c5.891,0,10.667,4.776,10.667,10.667v20.011l21.013,84.053c0.265,1.045,0.373,2.123,0.32,3.2l-21.333,384
	C362.351,507.587,357.667,512.009,352.001,512z M287.553,490.667h54.379l20.736-372.309L341.74,34.581
	c-0.24-0.841-0.377-1.708-0.405-2.581V21.333H170.668V32c-0.001,0.87-0.108,1.737-0.32,2.581l-21.013,83.776l20.757,372.309h54.379
	l10.197-235.115l10.667-107.264c0.644-5.856,5.914-10.08,11.769-9.436c4.967,0.547,8.889,4.469,9.436,9.436l10.667,106.667
	L287.553,490.667z"/>
<path d="M202.668,42.667c-5.891,0-10.667-4.776-10.667-10.667V10.667C192.001,4.776,196.777,0,202.668,0
	c5.891,0,10.667,4.776,10.667,10.667V32C213.335,37.891,208.559,42.667,202.668,42.667z"/>
<path d="M309.335,42.667c-5.891,0-10.667-4.776-10.667-10.667V10.667C298.668,4.776,303.444,0,309.335,0
	c5.891,0,10.667,4.776,10.667,10.667V32C320.001,37.891,315.226,42.667,309.335,42.667z"/>
<g>
</g>
<g>
</g>
<g>
</g>
<g>
</g>
<g>
</g>
<g>
</g>
<g>
</g>
<g>
</g>
<g>
</g>
<g>
</g>
<g>
</g>
<g>
</g>
<g>
</g>
<g>
</g>
<g>
</g>
</svg>
