<svg id="line_color" height="512" viewBox="0 0 74 74" width="512" xmlns="http://www.w3.org/2000/svg" data-name="line color"><path d="m45.957 4.55 10.678 4.134 14.365 17.465-9.404 10.438-5.684-5.168.827 38.031h-39.478l.827-38.031-5.684 5.168-9.404-10.438 14.365-17.465 10.678-4.134 8.957 13.71z" fill="#fe7058"/><path d="m56.02 31.619.72 37.831h-3.16l-.699-37.575z" fill="#ea6453"/><path d="m71 26.15-2.4 2.67-14.3-17.39-10.25-3.96 1.91-2.92 10.68 4.13z" fill="#ea6453"/><g fill="#323c6b"><path d="m6.16 18.083a.5.5 0 0 1 -.387-.817l.891-1.083a.5.5 0 0 1 .774.634l-.891 1.083a.5.5 0 0 1 -.387.183z"/><path d="m8.619 15.093a.5.5 0 0 1 -.386-.817l6.52-7.927a.5.5 0 1 1 .771.635l-6.519 7.927a.5.5 0 0 1 -.386.182z"/><path d="m59.318 50.9a.5.5 0 0 1 -.5-.476l-.052-1.093a.5.5 0 0 1 .474-.523.474.474 0 0 1 .524.476l.052 1.092a.5.5 0 0 1 -.474.524z"/><path d="m59.588 63a.5.5 0 0 1 -.5-.49l-.206-9.5a.5.5 0 0 1 .489-.511.488.488 0 0 1 .511.489l.206 9.5a.5.5 0 0 1 -.488.512z"/><path d="m56.738 69.95h-39.476a.5.5 0 0 1 -.362-.15.5.5 0 0 1 -.142-.36l.8-36.866-4.818 4.383a.5.5 0 0 1 -.707-.036l-9.4-10.438a.5.5 0 0 1 -.015-.651l14.361-17.465a.49.49 0 0 1 .205-.149l10.678-4.134a.5.5 0 0 1 .6.193l8.538 13.069 8.538-13.069a.5.5 0 0 1 .6-.193l10.678 4.134a.49.49 0 0 1 .2.149l14.37 17.465a.5.5 0 0 1 -.015.651l-9.4 10.438a.5.5 0 0 1 -.347.165.482.482 0 0 1 -.36-.129l-4.822-4.384.8 36.866a.5.5 0 0 1 -.142.36.5.5 0 0 1 -.362.151zm-38.966-1h38.456l-.816-37.52a.5.5 0 0 1 .836-.381l5.313 4.829 8.78-9.744-14.008-17.034-10.179-3.937-8.735 13.371a.52.52 0 0 1 -.838 0l-8.735-13.371-10.179 3.937-14.008 17.034 8.78 9.744 5.313-4.829a.5.5 0 0 1 .836.381z"/></g><path d="m32.721 66.475h-10.7a.742.742 0 1 1 0-1.483h10.7a.742.742 0 1 1 0 1.483z" fill="#fff"/><path d="m37.125 66.475h-1.165a.742.742 0 1 1 0-1.483h1.165a.742.742 0 1 1 0 1.483z" fill="#fff"/></svg>