<svg height="512" viewBox="0 0 46 60" width="512" xmlns="http://www.w3.org/2000/svg"><g id="069---Waistcoat" fill="none"><g id="Icons" transform="translate(1)"><path id="Shape" d="m32 1c-.4852988.00863035-.9508988.19344866-1.31.52-.19093.16969776-.344218.37748817-.45.61l-8.24 22.87-8.24-22.86c-.324458-.68174508-1.0051828-1.12266911-1.76-1.14z" fill="#37474f"/><path id="Shape" d="m22 25v25l-6 9-2.32-1-12.48-5.48c-.72784639-.3176571-1.19879636-1.0358558-1.2-1.83v-22.69s7-3 6-13c-.3087151-3.2579586-.81632871-6.49399535-1.52-9.69-.21129581-.99063367.3513766-1.98282701 1.31-2.31l4.44-1.49 1.09-.36c.9490303-.32597162 1.9926957.10176009 2.44 1z" fill="#37474f"/><path id="Shape" d="m19 25v25l-5.32 8-12.48-5.48c-.72784639-.3176571-1.19879636-1.0358558-1.2-1.83v-22.69s7-3 6-13c-.3087151-3.2579586-.81632871-6.49399535-1.52-9.69-.21129581-.99063367.3513766-1.98282701 1.31-2.31l4.44-1.49c.2240018.18544011.4048703.41749779.53.68z" fill="#607d8b"/><path id="Shape" d="m44 28v22.69c-.0012036.7941442-.4721536 1.5123429-1.2 1.83l-1.28.56-13.52 5.92-6-9v-25l8.24-22.86c.105782-.23251183.25907-.44030224.45-.61.5373778-.49923507 1.3049214-.66425695 2-.43l5.52 1.9c.981707.32899521 1.550027 1.35283888 1.31 2.36-.7016659 3.17954007-1.20927 6.3988186-1.52 9.64-1 10 6 13 6 13z" fill="#37474f"/><path id="Shape" d="m41.52 29.86v23.22l-13.52 5.92-6-9v-25l8.24-22.86c.105782-.23251183.25907-.44030224.45-.61l4.64 1.55c1.0552863.34889478 1.6649058 1.45056415 1.4 2.53-.7564257 3.42652829-1.3007925 6.896449-1.63 10.39-1.1 10.66 6.42 13.86 6.42 13.86z" fill="#607d8b"/><g fill="#9e9e9e"><path id="Shape" d="m12.22 41.83-7-1.56c-.30066373-.0679051-.61584207.0066399-.8542298.2020396-.23838773.1953998-.37334303.4898169-.3657702.7979604v2.23c0 .3147573.14819416.6111456.4.8l3.24 2.43c.22867472.1716016.51986315.237119.8.18l3.76-.75c.4731232-.0964736.8097357-.5172392.8-1v-2.36c-.0025616-.4654607-.3259347-.8676042-.78-.97z"/><path id="Shape" d="m31.78 41.83 7-1.56c.3006637-.0679051.6158421.0066399.8542298.2020396.2383877.1953998.373343.4898169.3657702.7979604v2.23c0 .3147573-.1481942.6111456-.4.8l-3.24 2.43c-.2286747.1716016-.5198632.237119-.8.18l-3.76-.75c-.4731232-.0964736-.8097357-.5172392-.8-1v-2.36c.0025616-.4654607.3259347-.8676042.78-.97z"/></g></g><g id="Layer_9" fill="#000"><path id="Shape" d="m.61 27.08c-.36950495.1564992-.60967296.5187198-.61.92v22.69c-.00018077 1.1930315.70656854 2.2727874 1.8 2.75l14.8 6.48c.4454864.1910811.9638664.0351456 1.23-.37l5.17-7.75 5.17 7.75c.2661336.4051456.7845136.5610811 1.23.37l14.8-6.48c1.0934315-.4772126 1.8001808-1.5569685 1.8-2.75v-22.69c-.000327-.4012802-.2404951-.7635008-.61-.92-.06 0-6.31-2.82-5.39-12 .2981115-3.2117799.7991121-6.40148344 1.5-9.55.3624394-1.52401389-.5087257-3.07033187-2-3.55-5.9-1.98-5.76-1.98-6.5-1.98h-20c-.73 0-.52 0-6.48 2-1.49127434.47966813-2.36243939 2.02598611-2 3.55.69416388 3.14895032 1.18848381 6.3386498 1.48 9.55.92 9.1-5.14 11.9-5.39 11.98zm22.39-5-7.23-20.08h14.46zm16.55-17c-.716457 3.23865852-1.2340907 6.5181186-1.55 9.82-.88 8.81 4.21 12.64 6 13.7v22.09c.001389.3988865-.2344113.7604469-.6.92l-14 6.14-5.4-8.05v-24.53l8.16-22.63c.2263906-.44038165.7409783-.64876841 1.21-.49l5.53 1.84c.4935764.16678048.7764049.68457429.65 1.19zm-31.55 9.82c-.31590928-3.3018814-.83354299-6.58134148-1.55-9.82-.12640491-.50542571.15642364-1.02321952.65-1.19l5.53-1.84c.4690217-.15876841.9836094.04961835 1.21.49l8.16 22.63v24.53l-5.37 8-14-6.14c-.36558874-.1595531-.60138902-.5211135-.6-.92v-22.04c1.76-1.06 6.85-4.89 5.97-13.7z"/><path id="Shape" d="m8.4 47.8c.22867472.1716016.51986315.237119.8.18l5-1c.4731232-.0964736.8097357-.5172392.8-1v-3.98c.0116496-.4766599-.3148474-.8952458-.78-1l-9-2c-.30066373-.0679051-.61584207.0066399-.8542298.2020396-.23838773.1953998-.37334303.4898169-.3657702.7979604v4c0 .3147573.14819416.6111456.4.8zm-2.4-6.55 7 1.55v2.38l-3.76.75-3.24-2.43z"/><path id="Shape" d="m31 42v4c-.0097357.4827608.3268768.9035264.8 1 5.44 1.09 5.06 1 5.2 1 .45 0 .18.11 4.6-3.2.2518058-.1888544.4-.4852427.4-.8v-4c.0075728-.3081435-.1273825-.6025606-.3657702-.7979604-.2383877-.1953997-.5535661-.2699447-.8542298-.2020396l-9 2c-.4651526.1047542-.7916496.5233401-.78 1zm2 .8 7-1.55v2.25l-3.24 2.43-3.76-.75z"/><circle id="Oval" cx="19" cy="34" r="1"/><circle id="Oval" cx="19" cy="40" r="1"/></g></g></svg>